<svg width="174" height="26" viewBox="0 0 174 26" fill="none" xmlns="http://www.w3.org/2000/svg">
<g clip-path="url(#clip0_15_10)">
<path fill-rule="evenodd" clip-rule="evenodd" d="M1.71429 1C1.25963 1 0.823594 1.18061 0.502103 1.5021C0.180612 1.82359 0 2.25963 0 2.71429L0 13C0 13.4547 0.180612 13.8907 0.502103 14.2122C0.823594 14.5337 1.25963 14.7143 1.71429 14.7143H8.57143C9.02609 14.7143 9.46212 14.5337 9.78361 14.2122C10.1051 13.8907 10.2857 13.4547 10.2857 13V2.71429C10.2857 2.25963 10.1051 1.82359 9.78361 1.5021C9.46212 1.18061 9.02609 1 8.57143 1H1.71429ZM13.7143 2.71429C13.7143 2.25963 13.8949 1.82359 14.2164 1.5021C14.5379 1.18061 14.9739 1 15.4286 1L22.2857 1C22.7404 1 23.1764 1.18061 23.4979 1.5021C23.8194 1.82359 24 2.25963 24 2.71429V6.16C24 6.61466 23.8194 7.05069 23.4979 7.37218C23.1764 7.69367 22.7404 7.87429 22.2857 7.87429H15.4286C14.9739 7.87429 14.5379 7.69367 14.2164 7.37218C13.8949 7.05069 13.7143 6.61466 13.7143 6.16V2.71429ZM13.7143 13C13.7143 12.5453 13.8949 12.1093 14.2164 11.7878C14.5379 11.4663 14.9739 11.2857 15.4286 11.2857H22.2857C22.7404 11.2857 23.1764 11.4663 23.4979 11.7878C23.8194 12.1093 24 12.5453 24 13V23.2857C24 23.7404 23.8194 24.1764 23.4979 24.4979C23.1764 24.8194 22.7404 25 22.2857 25H15.4286C14.9739 25 14.5379 24.8194 14.2164 24.4979C13.8949 24.1764 13.7143 23.7404 13.7143 23.2857V13ZM0 19.84C0 19.3853 0.180612 18.9493 0.502103 18.6278C0.823594 18.3063 1.25963 18.1257 1.71429 18.1257H8.57143C9.02609 18.1257 9.46212 18.3063 9.78361 18.6278C10.1051 18.9493 10.2857 19.3853 10.2857 19.84V23.2857C10.2857 23.7404 10.1051 24.1764 9.78361 24.4979C9.46212 24.8194 9.02609 25 8.57143 25H1.71429C1.25963 25 0.823594 24.8194 0.502103 24.4979C0.180612 24.1764 0 23.7404 0 23.2857V19.84Z" fill="#5D87FF"/>
</g>
<path d="M33.4976 21V5.504H38.552C40.1883 5.504 41.6096 5.8368 42.816 6.5024C44.0363 7.15413 44.9792 8.0624 45.6448 9.2272C46.3104 10.3781 46.6432 11.7163 46.6432 13.2416C46.6432 14.7531 46.3104 16.0981 45.6448 17.2768C44.9792 18.4416 44.0363 19.3568 42.816 20.0224C41.6096 20.6741 40.1883 21 38.552 21H33.4976ZM36.3264 18.504H38.6144C39.6683 18.504 40.5765 18.2891 41.3392 17.8592C42.1157 17.4155 42.7189 16.8053 43.1488 16.0288C43.5787 15.2384 43.7936 14.3093 43.7936 13.2416C43.7936 12.16 43.5787 11.2309 43.1488 10.4544C42.7189 9.67787 42.1157 9.07467 41.3392 8.6448C40.5765 8.21493 39.6683 8 38.6144 8H36.3264V18.504ZM52.057 21.2496C51.2666 21.2496 50.5802 21.1179 49.9978 20.8544C49.4154 20.5909 48.9648 20.2165 48.6458 19.7312C48.3269 19.232 48.1674 18.6565 48.1674 18.0048C48.1674 17.3808 48.3061 16.8261 48.5834 16.3408C48.8608 15.8416 49.2906 15.4256 49.873 15.0928C50.4554 14.76 51.1904 14.5243 52.0778 14.3856L55.7803 13.7824V15.8624L52.5978 16.4032C52.057 16.5003 51.6549 16.6736 51.3914 16.9232C51.128 17.1728 50.9962 17.4987 50.9962 17.9008C50.9962 18.2891 51.1418 18.6011 51.433 18.8368C51.7381 19.0587 52.1125 19.1696 52.5562 19.1696C53.1248 19.1696 53.624 19.0517 54.0539 18.816C54.4976 18.5664 54.8373 18.2267 55.073 17.7968C55.3227 17.3669 55.4475 16.8955 55.4475 16.3824V13.4704C55.4475 12.9851 55.2533 12.5829 54.8651 12.264C54.4907 11.9312 53.9914 11.7648 53.3674 11.7648C52.785 11.7648 52.265 11.9243 51.8074 12.2432C51.3637 12.5483 51.0378 12.9573 50.8298 13.4704L48.6042 12.3888C48.8261 11.7925 49.1728 11.2795 49.6442 10.8496C50.1296 10.4059 50.6981 10.0592 51.3498 9.8096C52.0016 9.56 52.7088 9.4352 53.4714 9.4352C54.4005 9.4352 55.2187 9.60853 55.9259 9.9552C56.6331 10.288 57.1808 10.7595 57.569 11.3696C57.9712 11.9659 58.1723 12.6661 58.1723 13.4704V21H55.5931V19.0656L56.1755 19.024C55.8843 19.5093 55.5376 19.9184 55.1354 20.2512C54.7333 20.5701 54.2757 20.8197 53.7627 21C53.2496 21.1664 52.6811 21.2496 52.057 21.2496ZM64.9963 21.2496C63.7899 21.2496 62.736 20.9653 61.8347 20.3968C60.9472 19.8144 60.3371 19.0309 60.0043 18.0464L62.0427 17.0688C62.3339 17.7067 62.736 18.2059 63.2491 18.5664C63.776 18.9269 64.3584 19.1072 64.9963 19.1072C65.4955 19.1072 65.8907 18.9963 66.1819 18.7744C66.4731 18.5525 66.6187 18.2613 66.6187 17.9008C66.6187 17.6789 66.5563 17.4987 66.4315 17.36C66.3205 17.2075 66.1611 17.0827 65.9531 16.9856C65.7589 16.8747 65.544 16.7845 65.3083 16.7152L63.4571 16.1952C62.5003 15.9179 61.7723 15.4949 61.2731 14.9264C60.7877 14.3579 60.5451 13.6853 60.5451 12.9088C60.5451 12.2155 60.7184 11.6123 61.0651 11.0992C61.4256 10.5723 61.9179 10.1632 62.5419 9.872C63.1797 9.5808 63.9077 9.4352 64.7259 9.4352C65.7936 9.4352 66.7365 9.69173 67.5547 10.2048C68.3728 10.7179 68.9552 11.4389 69.3019 12.368L67.2219 13.3456C67.0277 12.8325 66.7019 12.4235 66.2443 12.1184C65.7867 11.8133 65.2736 11.6608 64.7051 11.6608C64.2475 11.6608 63.8869 11.7648 63.6235 11.9728C63.36 12.1808 63.2283 12.4512 63.2283 12.784C63.2283 12.992 63.2837 13.1723 63.3947 13.3248C63.5056 13.4773 63.6581 13.6021 63.8523 13.6992C64.0603 13.7963 64.296 13.8864 64.5595 13.9696L66.3691 14.5104C67.2981 14.7877 68.0123 15.2037 68.5115 15.7584C69.0245 16.3131 69.2811 16.9925 69.2811 17.7968C69.2811 18.4763 69.1008 19.0795 68.7403 19.6064C68.3797 20.1195 67.8805 20.5216 67.2427 20.8128C66.6048 21.104 65.856 21.2496 64.9963 21.2496ZM71.375 21V5.2544H74.0998V11.9104L73.7254 11.5152C73.9889 10.8357 74.4188 10.3227 75.015 9.976C75.6252 9.61547 76.3324 9.4352 77.1366 9.4352C77.9686 9.4352 78.7036 9.61547 79.3414 9.976C79.9932 10.3365 80.4993 10.8427 80.8598 11.4944C81.2204 12.1323 81.4006 12.8741 81.4006 13.72V21H78.6758V14.3648C78.6758 13.8656 78.5788 13.4357 78.3846 13.0752C78.1905 12.7147 77.9201 12.4373 77.5734 12.2432C77.2406 12.0352 76.8454 11.9312 76.3878 11.9312C75.9441 11.9312 75.5489 12.0352 75.2022 12.2432C74.8556 12.4373 74.5852 12.7147 74.391 13.0752C74.1969 13.4357 74.0998 13.8656 74.0998 14.3648V21H71.375ZM89.8823 21.2496C89.0642 21.2496 88.3085 21.0901 87.6151 20.7712C86.9357 20.4384 86.3949 19.9669 85.9927 19.3568L86.2631 18.816V21H83.7047V5.2544H86.4295V11.9312L86.0135 11.3696C86.4018 10.7595 86.9287 10.288 87.5943 9.9552C88.2599 9.60853 89.0295 9.4352 89.9031 9.4352C90.9709 9.4352 91.9346 9.69867 92.7943 10.2256C93.6541 10.7525 94.3335 11.4597 94.8327 12.3472C95.3458 13.2347 95.6023 14.2331 95.6023 15.3424C95.6023 16.4379 95.3527 17.4363 94.8535 18.3376C94.3543 19.2389 93.6749 19.9531 92.8151 20.48C91.9554 20.9931 90.9778 21.2496 89.8823 21.2496ZM89.5703 18.7536C90.1943 18.7536 90.749 18.608 91.2343 18.3168C91.7197 18.0256 92.0941 17.6235 92.3575 17.1104C92.6349 16.5973 92.7735 16.008 92.7735 15.3424C92.7735 14.6768 92.6349 14.0944 92.3575 13.5952C92.0941 13.0821 91.7197 12.68 91.2343 12.3888C90.749 12.0837 90.1943 11.9312 89.5703 11.9312C88.9741 11.9312 88.4333 12.0768 87.9479 12.368C87.4765 12.6592 87.1021 13.0683 86.8247 13.5952C86.5613 14.1083 86.4295 14.6907 86.4295 15.3424C86.4295 16.008 86.5613 16.5973 86.8247 17.1104C87.1021 17.6235 87.4765 18.0256 87.9479 18.3168C88.4333 18.608 88.9741 18.7536 89.5703 18.7536ZM103.213 21.2496C102.103 21.2496 101.091 20.9931 100.176 20.48C99.2744 19.9669 98.5533 19.2667 98.0125 18.3792C97.4856 17.4917 97.2221 16.4795 97.2221 15.3424C97.2221 14.2053 97.4856 13.1931 98.0125 12.3056C98.5533 11.4181 99.2744 10.7179 100.176 10.2048C101.077 9.69173 102.089 9.4352 103.213 9.4352C104.322 9.4352 105.327 9.69173 106.229 10.2048C107.13 10.7179 107.844 11.4181 108.371 12.3056C108.912 13.1792 109.182 14.1915 109.182 15.3424C109.182 16.4795 108.912 17.4917 108.371 18.3792C107.83 19.2667 107.109 19.9669 106.208 20.48C105.306 20.9931 104.308 21.2496 103.213 21.2496ZM103.213 18.7536C103.823 18.7536 104.357 18.608 104.814 18.3168C105.286 18.0256 105.653 17.6235 105.917 17.1104C106.194 16.5835 106.333 15.9941 106.333 15.3424C106.333 14.6768 106.194 14.0944 105.917 13.5952C105.653 13.0821 105.286 12.68 104.814 12.3888C104.357 12.0837 103.823 11.9312 103.213 11.9312C102.589 11.9312 102.041 12.0837 101.569 12.3888C101.098 12.68 100.723 13.0821 100.446 13.5952C100.183 14.0944 100.051 14.6768 100.051 15.3424C100.051 15.9941 100.183 16.5835 100.446 17.1104C100.723 17.6235 101.098 18.0256 101.569 18.3168C102.041 18.608 102.589 18.7536 103.213 18.7536ZM114.68 21.2496C113.89 21.2496 113.204 21.1179 112.621 20.8544C112.039 20.5909 111.588 20.2165 111.269 19.7312C110.95 19.232 110.791 18.6565 110.791 18.0048C110.791 17.3808 110.93 16.8261 111.207 16.3408C111.484 15.8416 111.914 15.4256 112.496 15.0928C113.079 14.76 113.814 14.5243 114.701 14.3856L118.404 13.7824V15.8624L115.221 16.4032C114.68 16.5003 114.278 16.6736 114.015 16.9232C113.751 17.1728 113.62 17.4987 113.62 17.9008C113.62 18.2891 113.765 18.6011 114.056 18.8368C114.362 19.0587 114.736 19.1696 115.18 19.1696C115.748 19.1696 116.247 19.0517 116.677 18.816C117.121 18.5664 117.461 18.2267 117.696 17.7968C117.946 17.3669 118.071 16.8955 118.071 16.3824V13.4704C118.071 12.9851 117.877 12.5829 117.488 12.264C117.114 11.9312 116.615 11.7648 115.991 11.7648C115.408 11.7648 114.888 11.9243 114.431 12.2432C113.987 12.5483 113.661 12.9573 113.453 13.4704L111.228 12.3888C111.45 11.7925 111.796 11.2795 112.268 10.8496C112.753 10.4059 113.322 10.0592 113.973 9.8096C114.625 9.56 115.332 9.4352 116.095 9.4352C117.024 9.4352 117.842 9.60853 118.549 9.9552C119.256 10.288 119.804 10.7595 120.192 11.3696C120.595 11.9659 120.796 12.6661 120.796 13.4704V21H118.216V19.0656L118.799 19.024C118.508 19.5093 118.161 19.9184 117.759 20.2512C117.357 20.5701 116.899 20.8197 116.386 21C115.873 21.1664 115.304 21.2496 114.68 21.2496ZM123.314 21V9.6848H125.873V12.2016L125.665 11.8272C125.928 10.9813 126.337 10.392 126.892 10.0592C127.46 9.7264 128.14 9.56 128.93 9.56H129.596V11.9728H128.618C127.842 11.9728 127.218 12.2155 126.746 12.7008C126.275 13.1723 126.039 13.8379 126.039 14.6976V21H123.314ZM136.356 21.2496C135.261 21.2496 134.283 20.9931 133.423 20.48C132.564 19.9531 131.884 19.2389 131.385 18.3376C130.886 17.4363 130.636 16.4379 130.636 15.3424C130.636 14.2331 130.886 13.2347 131.385 12.3472C131.884 11.4597 132.564 10.7525 133.423 10.2256C134.297 9.69867 135.268 9.4352 136.335 9.4352C137.195 9.4352 137.958 9.60853 138.623 9.9552C139.303 10.288 139.837 10.7595 140.225 11.3696L139.809 11.9312V5.2544H142.534V21H139.955V18.816L140.246 19.3568C139.858 19.9669 139.317 20.4384 138.623 20.7712C137.93 21.0901 137.174 21.2496 136.356 21.2496ZM136.647 18.7536C137.271 18.7536 137.819 18.608 138.291 18.3168C138.762 18.0256 139.13 17.6235 139.393 17.1104C139.67 16.5973 139.809 16.008 139.809 15.3424C139.809 14.6907 139.67 14.1083 139.393 13.5952C139.13 13.0683 138.762 12.6592 138.291 12.368C137.819 12.0768 137.271 11.9312 136.647 11.9312C136.037 11.9312 135.49 12.0837 135.004 12.3888C134.519 12.68 134.138 13.0821 133.86 13.5952C133.597 14.0944 133.465 14.6768 133.465 15.3424C133.465 16.008 133.597 16.5973 133.86 17.1104C134.138 17.6235 134.519 18.0256 135.004 18.3168C135.49 18.608 136.037 18.7536 136.647 18.7536Z" fill="#11142D"/>
<defs>
<clipPath id="clip0_15_10">
<rect width="24" height="24" fill="white" transform="translate(0 1)"/>
</clipPath>
</defs>
</svg>
